<?xml version="1.0"?>
<svg xmlns="http://www.w3.org/2000/svg" viewBox="-8 10 32 32">
    <path d="M 15 3 C 14.225 3 13.48925 3.1055 12.78125 3.3125 C 10.83325 3.7255 9.25975 4.55925 8.09375 5.78125 C 5.89775 8.08025 5.996 10.926 6 11 L 6 15.71875 C 5.426 16.19575 5 16.931 5 18 C 5 20.068 6.15625 21.516 8.03125 21.875 C 8.41325 26.18 11.524 29 16 29 C 18.149 29 19.97775 28.3415 21.34375 27.1875 C 21.15575 28.5905 21 29.763 21 30 C 21 30.552 21.448 31 22 31 C 22.552 31 23 30.552 23 30 C 23 29.646 22.665 28.236 22.375 26.125 C 23.26 24.979 23.82075 23.542 23.96875 21.875 C 25.84475 21.516 27 20.068 27 18 C 27 16.931 26.574 16.19575 26 15.71875 L 26 11.03125 C 26.006 10.91125 26.10125 8.08025 23.90625 5.78125 C 22.74025 4.56025 21.16675 3.7265 19.21875 3.3125 C 18.50975 3.1065 17.775 3 17 3 L 15 3 z M 16 5 C 17.005 5 17.924 5.08 18.75 5.25 C 19.859 5.588 20.8275 6.264 21.5625 7.125 C 21.2315 7.057 20.871 7 20.5 7 C 19.617 7 18.8865 7.31925 18.3125 7.90625 C 17.8745 6.84325 17.156 6 16 6 C 14.825 6 14.1225 6.7645 13.6875 7.6875 C 13.1215 7.2245 12.471 7.023 12 7 C 11.346 7 10.761 7.13075 10.25 7.34375 C 11.003 6.36975 12.046 5.618 13.25 5.25 C 14.076 5.081 14.993 5 16 5 z M 16 8 C 16.372 8 16.98 9.826 17 12 L 19 12 C 19 11.499 19.063 9 20.5 9 C 21.246 9 21.81675 9.209 22.21875 9.625 C 22.92475 10.353 22.994 11.541 23 11.875 L 23 16 L 23 16.96875 L 24 17 C 24.462 17.012 25 17.195 25 18 C 25 19.296 24.327 19.9375 23 19.9375 L 22 19.9375 L 22 20 C 22 20 21.68125 20.965 21.15625 21 C 20.68225 21.031 19.72325 20.97375 19.28125 21.21875 C 18.68025 21.55275 19.17975 22.99675 18.84375 23.59375 C 18.47475 24.24775 18.30325 23.95 17.78125 24.125 C 17.55425 24.201 16.958 24.4855 17 25.5625 C 16.927 26.1165 16.85375 26.81175 15.59375 26.96875 C 12.19075 26.79175 10 24.4665 10 20.9375 L 10 19.9375 L 9 19.9375 C 7.673 19.9375 7 19.296 7 18 C 7 17.195 7.55 17.012 8 17 L 9 17 L 9 12.09375 C 9.094 11.64375 9.7565 9.003 11.9375 9 C 12.1175 9.02 13 9.206 13 11 L 15 11 C 15.011 9.803 15.416 8 16 8 z M 19.5 15 C 18.119288 15 17 15.895431 17 17 C 17 18.104569 18.119288 19 19.5 19 C 20.880712 19 22 18.104569 22 17 C 22 15.895431 20.880712 15 19.5 15 z M 12.5 16 C 11.252 16.001 10 16.448 10 17 C 10 18.105 11.119 19 12.5 19 C 13.881 19 15 18.105 15 17 C 15 16.447 13.752 15.999 12.5 16 z M 16 19 C 15.448 19 15 19.895 15 21 C 15 22.105 15.448 21 16 21 C 16.552 21 17 22.105 17 21 C 17 19.895 16.552 19 16 19 z" transform="translate(-8 10)"/>
</svg>
